<svg id="Layer_1" data-name="Layer 1" xmlns="http://www.w3.org/2000/svg" xmlns:xlink="http://www.w3.org/1999/xlink" viewBox="0 0 1920 1080"><defs><style>.cls-1,.cls-10,.cls-6,.cls-7,.cls-8,.cls-9{fill:none;}.cls-2{clip-path:url(#clip-path);}.cls-3{fill:#283f8a;}.cls-4{fill:#d1d9f5;}.cls-5{opacity:0.1;}.cls-10,.cls-6,.cls-7,.cls-8,.cls-9{stroke:#3e57a7;stroke-miterlimit:10;}.cls-6{stroke-width:3.06px;}.cls-7{stroke-width:2.62px;}.cls-8{stroke-width:2.17px;}.cls-9{stroke-width:1.79px;}.cls-10{stroke-width:1.32px;}.cls-11{clip-path:url(#clip-path-2);}.cls-12{fill:#abbaed;}.cls-13{clip-path:url(#clip-path-3);}</style><clipPath id="clip-path"><rect class="cls-1" x="2159.5" y="0.5" width="1920" height="1080"/></clipPath><clipPath id="clip-path-2"><rect class="cls-1" x="-0.5" y="0.5" width="1920" height="1080"/></clipPath><clipPath id="clip-path-3"><rect class="cls-1" x="-2169" width="1920" height="1080"/></clipPath></defs><g class="cls-2"><path class="cls-3" d="M1953.43-129.83c0,263.82,214.07,477.59,477.67,477.59,263.9,0,477.75-213.77,477.75-477.59-.16-263.53-213.85-477.44-477.75-477.44-263.6,0-477.67,213.91-477.67,477.44Zm-544,.08c0-564.32,457.43-1021.76,1021.75-1021.76S3452.93-694.07,3452.93-129.75,2995.5,892,2431.18,892,1409.43,434.56,1409.43-129.75"/></g><rect class="cls-4" x="-0.5" y="0.5" width="1920" height="1080"/><g class="cls-5"><circle class="cls-6" cx="1919.65" cy="1079.61" r="490"/><circle class="cls-7" cx="1919.65" cy="1079.61" r="419.56"/><circle class="cls-8" cx="1919.65" cy="1079.61" r="347.59"/><circle class="cls-9" cx="1919.65" cy="1079.61" r="286.34"/><circle class="cls-10" cx="1919.65" cy="1079.61" r="211.31"/></g><g class="cls-11"><path class="cls-12" d="M-206.57-129.83C-206.57,134,7.5,347.76,271.1,347.76,535,347.76,748.85,134,748.85-129.83,748.69-393.36,535-607.27,271.1-607.27c-263.6,0-477.67,213.91-477.67,477.44Zm-544,.08c0-564.32,457.43-1021.76,1021.75-1021.76S1292.93-694.07,1292.93-129.75,835.5,892,271.18,892-750.57,434.56-750.57-129.75"/></g><g class="cls-13"><g class="cls-5"><circle class="cls-6" cx="-249.35" cy="1079.61" r="490"/><circle class="cls-7" cx="-249.35" cy="1079.61" r="419.56"/><circle class="cls-8" cx="-249.35" cy="1079.61" r="347.59"/><circle class="cls-9" cx="-249.35" cy="1079.61" r="286.34"/></g></g></svg>