<svg xmlns="http://www.w3.org/2000/svg" xmlns:xlink="http://www.w3.org/1999/xlink" width="1728" height="1728" preserveAspectRatio="xMidYMid meet" viewBox="0 0 1728 1728" style="-ms-transform: rotate(360deg); -webkit-transform: rotate(360deg); transform: rotate(360deg);"><path d="M1728 864q0 176-68.5 336t-184 275.5t-275.5 184t-336 68.5t-336-68.5t-275.5-184t-184-275.5T0 864q0-213 97-398.5T362 160T736 9v228q-221 45-366.5 221T224 864q0 130 51 248.5t136.5 204t204 136.5t248.5 51t248.5-51t204-136.5t136.5-204t51-248.5q0-230-145.5-406T992 237V9q206 31 374 151t265 305.5t97 398.5z" fill="white"/><rect x="0" y="0" width="1728" height="1728" fill="rgba(0, 0, 0, 0)" /></svg>