<svg id="Layer_1" data-name="Layer 1" xmlns="http://www.w3.org/2000/svg" xmlns:xlink="http://www.w3.org/1999/xlink" viewBox="0 0 399 279"><defs><style>.cls-1{fill:none;}.cls-2{clip-path:url(#clip-path);}.cls-3{fill:#f05a22;}</style><clipPath id="clip-path"><rect class="cls-1" width="399" height="279"/></clipPath></defs><g class="cls-2"><path d="M17.6,234.982,0,207.48H13.987l10.922,17.994L35.831,207.48H49.818l-17.6,27.5,17.6,27.5H35.831L24.909,244.569,13.987,262.484H0Z"/><path d="M97.277,243.547c0,11.865-7.308,19.959-17.758,19.959-5.579,0-10.137-2.829-12.1-6.365V278.2H55.474V224.61H67.418v5.421c2.043-3.615,6.757-6.443,12.415-6.443C90.205,223.588,97.277,231.6,97.277,243.547Zm-12.258,0c0-5.815-3.693-9.9-8.958-9.9-5.422,0-9.115,4.008-9.115,9.9,0,5.972,3.772,9.979,9.115,9.979C81.326,253.526,85.019,249.44,85.019,243.547Z"/><path d="M141.67,246.847H113.7c.236,4.951,3.537,7.622,8.88,7.622,3.693,0,6.05-1.021,7.072-3.379h11.786c-1.179,7.465-8.8,12.416-18.858,12.416-12.887,0-20.823-7.308-20.823-19.959,0-12.416,8.093-19.959,20.43-19.959,11.787,0,19.8,7.308,19.8,18A41,41,0,0,1,141.67,246.847Zm-11.551-7.465c-.078-5.029-2.907-7.7-8.015-7.7-5.186,0-8.33,3.065-8.408,7.7Z"/><path d="M148.9,224.61H160.92v7.936a10.6,10.6,0,0,1,10.451-8.565,11.717,11.717,0,0,1,3.142.314v11.158a27.043,27.043,0,0,0-3.613-.235c-6.523,0-9.98,4.243-9.98,12.65v14.616H148.9Z"/><path d="M179.541,214a7.426,7.426,0,1,1,7.386,7.308A7.231,7.231,0,0,1,179.541,214Zm1.414,10.609H192.9v37.874H180.955Z"/><path d="M239.808,246.847H211.834c.236,4.951,3.537,7.622,8.88,7.622,3.693,0,6.05-1.021,7.072-3.379h11.786c-1.179,7.465-8.8,12.416-18.858,12.416-12.887,0-20.823-7.308-20.823-19.959,0-12.416,8.093-19.959,20.43-19.959,11.787,0,19.8,7.308,19.8,18A41,41,0,0,1,239.808,246.847Zm-11.551-7.465c-.078-5.029-2.907-7.7-8.015-7.7-5.186,0-8.329,3.065-8.408,7.7Z"/><path d="M247.035,224.61h12.023v5.5c2.2-4.243,6.522-6.522,12.258-6.522,9.194,0,13.83,5.186,13.83,15.48v23.416h-12.1V243c0-6.365-1.808-9.273-6.679-9.273-4.794,0-7.308,3.144-7.308,8.959v19.8H247.035Z"/><path d="M291.744,243.547c0-11.944,7.779-19.959,20.273-19.959,11.315,0,18.7,5.972,19.645,15.4H319.639c-.864-3.536-3.143-5.186-7.544-5.186-5.185,0-8.329,3.458-8.329,9.744s3.144,9.744,8.329,9.744c4.4,0,6.68-1.572,7.544-4.872h12.023c-.943,9.193-8.33,15.087-19.645,15.087C299.523,263.506,291.744,255.491,291.744,243.547Z"/><path d="M376.842,246.847H348.868c.235,4.951,3.536,7.622,8.879,7.622,3.693,0,6.051-1.021,7.072-3.379h11.787c-1.178,7.465-8.8,12.416-18.859,12.416-12.886,0-20.823-7.308-20.823-19.959,0-12.416,8.094-19.959,20.431-19.959,11.786,0,19.8,7.308,19.8,18A40.991,40.991,0,0,1,376.842,246.847Zm-11.551-7.465c-.079-5.029-2.907-7.7-8.015-7.7-5.187,0-8.329,3.065-8.408,7.7Z"/><path class="cls-3" d="M382.577,255.569a7.78,7.78,0,1,1,7.779,7.7A7.681,7.681,0,0,1,382.577,255.569Z"/><circle class="cls-3" cx="127.389" cy="28.499" r="28.499"/><circle class="cls-3" cx="199.932" cy="82.134" r="27.635"/><circle class="cls-3" cx="271.611" cy="135.13" r="27.635"/></g></svg>