<svg width="32" height="32" viewBox="0 0 32 32" fill="none" xmlns="http://www.w3.org/2000/svg">
<path fill-rule="evenodd" clip-rule="evenodd" d="M32 16C32 24.8366 24.8366 32 16 32C7.16344 32 0 24.8366 0 16C0 7.16344 7.16344 0 16 0C24.8366 0 32 7.16344 32 16ZM11.69 10.721C11.69 12.2923 10.4163 13.566 8.845 13.566C7.27375 13.566 6 12.2923 6 10.721C6 9.14976 7.27375 7.87601 8.845 7.87601C10.4163 7.87601 11.69 9.14976 11.69 10.721ZM18.8461 16.075C18.8461 17.5988 17.6109 18.834 16.0871 18.834C14.5634 18.834 13.3281 17.5988 13.3281 16.075C13.3281 14.5513 14.5634 13.316 16.0871 13.316C17.6109 13.316 18.8461 14.5513 18.8461 16.075ZM23.2395 24.124C24.7632 24.124 25.9985 22.8887 25.9985 21.365C25.9985 19.8412 24.7632 18.606 23.2395 18.606C21.7157 18.606 20.4805 19.8412 20.4805 21.365C20.4805 22.8887 21.7157 24.124 23.2395 24.124Z" fill="#DDE0E4"/>
</svg>
