<svg width="40" height="40" viewBox="0 0 40 40" fill="none" xmlns="http://www.w3.org/2000/svg">
<path fill-rule="evenodd" clip-rule="evenodd" d="M40 20C40 31.0457 31.0457 40 20 40C8.9543 40 0 31.0457 0 20C0 8.9543 8.9543 0 20 0C31.0457 0 40 8.9543 40 20ZM14.612 13.401C14.612 15.3649 13.0199 16.957 11.056 16.957C9.09208 16.957 7.5 15.3649 7.5 13.401C7.5 11.4371 9.09208 9.845 11.056 9.845C13.0199 9.845 14.612 11.4371 14.612 13.401ZM20.1082 23.542C22.0124 23.542 23.5562 21.9983 23.5562 20.094C23.5562 18.1897 22.0124 16.646 20.1082 16.646C18.2039 16.646 16.6602 18.1897 16.6602 20.094C16.6602 21.9983 18.2039 23.542 20.1082 23.542ZM32.4995 26.706C32.4995 28.6103 30.9558 30.154 29.0515 30.154C27.1472 30.154 25.6035 28.6103 25.6035 26.706C25.6035 24.8017 27.1472 23.258 29.0515 23.258C30.9558 23.258 32.4995 24.8017 32.4995 26.706Z" fill="#262626"/>
</svg>
